<svg width="20" height="21" viewBox="0 0 20 21" fill="none" xmlns="http://www.w3.org/2000/svg">
<path d="M17.5 10.7695C17.5 9.20246 17.0091 7.67474 16.0964 6.40095C15.1836 5.12716 13.8947 4.17128 12.4108 3.66756C10.9269 3.16384 9.32246 3.13758 7.82287 3.59248C6.32327 4.04738 5.00383 4.96058 4.04985 6.20382C3.09587 7.44707 2.55529 8.9579 2.50402 10.5241C2.45274 12.0904 2.89336 13.6333 3.76398 14.9363C4.6346 16.2393 5.89149 17.2368 7.35812 17.7888C8.82476 18.3408 10.4275 18.4196 11.9411 18.014" stroke="#1F1F1F" stroke-width="2" stroke-linecap="round"/>
<circle cx="9.99996" cy="10.7696" r="3.33333" stroke="#1F1F1F" stroke-width="2"/>
<path d="M13.3334 8.26953V12.0195C13.3334 13.1701 14.2661 14.1029 15.4167 14.1029V14.1029C16.5673 14.1029 17.5 13.1701 17.5 12.0195V10.7695" stroke="#1F1F1F" stroke-width="2" stroke-linecap="round"/>
</svg>
