<svg width="20" height="21" viewBox="0 0 20 21" fill="none" xmlns="http://www.w3.org/2000/svg">
<g id="View_hide_fill">
<path id="Subtract" fill-rule="evenodd" clip-rule="evenodd" d="M15.3818 13.1967C15.9747 12.6426 16.4646 12.0932 16.8233 11.6576C17.1468 11.2649 17.3085 11.0685 17.3085 10.7695C17.3085 10.4705 17.1468 10.2742 16.8233 9.88144C15.6399 8.44465 13.0297 5.76953 9.99997 5.76953C9.39504 5.76953 8.80684 5.87617 8.24339 6.05831L10.5058 8.32073C11.4807 8.52105 12.2484 9.28884 12.4488 10.2637L15.3818 13.1967ZM7.7092 9.76676C7.57464 10.0737 7.49997 10.4129 7.49997 10.7695C7.49997 12.1502 8.61926 13.2695 9.99997 13.2695C10.3566 13.2695 10.6958 13.1949 11.0027 13.0603L12.9268 14.9844C12.0275 15.4553 11.0384 15.7695 9.99997 15.7695C6.97019 15.7695 4.36002 13.0944 3.17661 11.6576C2.85314 11.2649 2.69141 11.0685 2.69141 10.7695C2.69141 10.4705 2.85314 10.2742 3.17661 9.88144C3.70319 9.24211 4.51227 8.35759 5.51512 7.57267L7.7092 9.76676Z" fill="#1F1F1F"/>
<path id="Vector 116" d="M4.16663 2.43628L17.5 15.7696" stroke="#1F1F1F" stroke-width="2"/>
</g>
</svg>
