<svg width="13" height="13" viewBox="0 0 13 13" fill="none" xmlns="http://www.w3.org/2000/svg">
<path id="Vector" d="M1.5157 5.12258L4.44761 4.38199C4.77012 4.29654 4.97535 3.98321 4.88739 3.6414C4.79944 3.32808 4.47693 3.12869 4.1251 3.21414L2.60051 3.61292C3.09893 2.98627 3.74395 2.47355 4.53556 2.13174C5.73765 1.61902 7.057 1.59054 8.28841 2.04629C9.49049 2.50203 10.458 3.41353 10.9858 4.5529C11.1324 4.86623 11.4842 4.98016 11.8067 4.86623C12.1292 4.7238 12.2465 4.38199 12.1292 4.06867C11.4842 2.61597 10.2821 1.50509 8.75751 0.906918C7.23292 0.337233 5.56173 0.365717 4.06646 0.99237C3.06961 1.41963 2.24868 2.07477 1.60366 2.90081L1.22251 1.50509C1.13455 1.19176 0.812043 0.99237 0.460214 1.07782C0.137704 1.16328 -0.067529 1.4766 0.0204282 1.81841L0.782724 4.66684C0.870681 5.06562 1.07591 5.23652 1.5157 5.12258ZM12.9795 11.1612L12.2172 8.3413C12.2172 8.3413 12.0999 7.77162 11.5135 7.91404L8.5816 8.65463C8.25909 8.74008 8.05385 9.05341 8.14181 9.39522C8.22977 9.70855 8.55228 9.90793 8.90411 9.82248L10.4287 9.4237C9.13866 11.0758 6.85177 11.7594 4.77012 10.9619C3.56804 10.5061 2.60051 9.59461 2.07276 8.45524C1.92617 8.14191 1.57434 8.02798 1.25183 8.14191C0.929319 8.28433 0.812043 8.62614 0.929319 8.93947C1.57434 10.3922 2.77642 11.5031 4.30101 12.1012C5.03399 12.3861 5.76697 12.5 6.52926 12.5C8.46432 12.5 10.2821 11.617 11.4549 10.0788L11.836 11.4746C11.8947 11.7309 12.1585 11.9303 12.4224 11.9303C12.481 11.9303 12.5397 11.9303 12.569 11.9018C12.8622 11.7879 13.0674 11.4746 12.9795 11.1612Z" fill="#A8A8A8"/>
</svg>
